Coordinates
version=1
nRows=11
nColumns=42
inDegrees=yes

Units are S.I. units (second, meters, Newtons, ...)
If the header above contains a line with 'inDegrees', this indicates whether rotational values are in degrees (yes) or radians (no).

endheader
time	pelvis_tilt	pelvis_list	pelvis_rotation	pelvis_tx	pelvis_ty	pelvis_tz	hip_flexion_r	hip_adduction_r	hip_rotation_r	knee_angle_r	knee_adduction_r	knee_angle_r_beta	ankle_angle_r	subtalar_angle_r	mtp_angle_r	hip_flexion_l	hip_adduction_l	hip_rotation_l	knee_angle_l	knee_adduction_l	knee_angle_l_beta	ankle_angle_l	subtalar_angle_l	mtp_angle_l	lumbar_extension	lumbar_bending	lumbar_rotation	arm_flex_r	arm_add_r	arm_rot_r	elbow_flex_r	pro_sup_r	wrist_flex_r	wrist_dev_r	arm_flex_l	arm_add_l	arm_rot_l	elbow_flex_l	pro_sup_l	wrist_flex_l	wrist_dev_l
      2.50000000	      0.63540540	     -7.99678093	     -3.80253200	     -1.22215029	      0.83071684	      0.34029048	      6.62579682	      8.02522703	    -24.94588932	     20.63641083	     -2.32659754	      0.36017331	     19.12870469	     28.76606784	     -7.56776355	     18.03381342	    -21.52514457	    -25.19313486	     55.87588180	    -11.55885314	      0.97521811	     19.24130444	     15.61778720	     -7.56776355	    -23.74854510	     10.42857236	      1.84116466	     -9.61642045	     -4.46184947	    -11.62889488	    107.34099040	     90.00000001	      0.00000000	      0.00000000	     -0.03251133	     -8.01041288	    -17.66644491	     52.70214397	     90.00000001	      0.00000000	      0.00000000
      2.51000000	      0.47440726	     -8.09807996	     -3.77665233	     -1.22111374	      0.83049973	      0.33994032	      6.67633585	      8.06534114	    -25.07355398	     20.59791368	     -2.20646011	      0.35950141	     19.16720131	     28.65633317	     -7.56725003	     19.03134434	    -21.83328782	    -25.60967886	     54.82942440	    -11.23302754	      0.95695398	     19.49178605	     15.57963335	     -7.56725003	    -23.88238327	     10.51109750	      1.75830415	     -9.46752402	     -4.34213795	    -11.52382449	    107.44415185	     90.00000001	      0.00000000	      0.00000000	      0.15315864	     -8.08951366	    -17.63104923	     52.79498246	     90.00000001	      0.00000000	      0.00000000
      2.52000000	      0.11282419	     -8.10196975	     -3.91193536	     -1.21987363	      0.82987441	      0.33945988	      7.05567324	      8.00999918	    -25.17679995	     20.77687936	     -2.28793977	      0.36262495	     19.26303357	     29.12912581	     -7.56482581	     20.19808219	    -21.94917856	    -27.34842312	     53.43533978	    -12.13903350	      0.93262262	     20.53106515	     18.35690108	     -7.56482581	    -23.72005332	     10.49115194	      1.72922284	     -9.47665167	     -4.35018612	    -11.33140012	    107.45389680	     90.00000001	      0.00000000	      0.00000000	      0.28663813	     -8.14052528	    -17.54127822	     52.75439837	     90.00000001	      0.00000000	      0.00000000
      2.53000000	     -0.04805192	     -8.20590476	     -3.88536387	     -1.21882546	      0.82957313	      0.33900942	      7.10723125	      8.06012370	    -25.26362532	     20.75334510	     -2.17558114	      0.36221420	     19.30685052	     28.97964780	     -7.56436665	     21.17107739	    -22.23105181	    -27.66302365	     52.34921494	    -11.63220192	      0.91366616	     20.65333733	     18.36214136	     -7.56436665	    -23.85350400	     10.55380654	      1.62374629	     -9.36202416	     -4.22863577	    -11.23678376	    107.59220214	     90.00000001	      0.00000000	      0.00000000	      0.48609540	     -8.24282048	    -17.51447077	     52.86079364	     90.00000001	      0.00000000	      0.00000000
      2.54000000	     -0.46350268	     -8.24487387	     -3.88620021	     -1.21764156	      0.82898486	      0.33825562	      7.47379151	      8.17418028	    -25.21500654	     20.63114337	     -2.39009811	      0.36008138	     19.43703894	     29.07925371	     -7.56343130	     22.34507750	    -22.10723359	    -28.20680508	     50.77281474	    -11.82872556	      0.88615279	     21.02194031	     20.01910197	     -7.56343130	    -23.61636539	     10.60615297	      1.50680436	     -9.43068001	     -4.22040608	    -11.08537006	    107.70144175	     90.00000001	      0.00000000	      0.00000000	      0.60082396	     -8.27847073	    -17.45171185	     52.76125757	     90.00000001	      0.00000000	      0.00000000
      2.55000000	     -0.73825120	     -8.30667373	     -4.03348275	     -1.21610584	      0.82838306	      0.33761294	      7.73819151	      8.10667743	    -25.29563771	     20.91727687	     -2.32203302	      0.36507535	     19.63792374	     29.25015153	     -7.56126069	     23.25679897	    -22.28122590	    -29.73308308	     49.28279664	    -12.32412366	      0.86014707	     21.51260740	     24.10712102	     -7.56126069	    -23.49826536	     10.61496407	      1.49177149	     -9.49578723	     -4.20066773	    -10.99784199	    107.73109943	     90.00000001	      0.00000000	      0.00000000	      0.66613846	     -8.33630870	    -17.40821789	     52.66141781	     90.00000001	      0.00000000	      0.00000000
      2.56000000	     -0.95723406	     -8.43573765	     -4.05469893	     -1.21474565	      0.82797269	      0.33681020	      7.86407009	      8.22501157	    -25.18796274	     20.89630428	     -2.34935323	      0.36470931	     19.68721454	     29.14652457	     -7.56060607	     24.08211080	    -22.31965610	    -29.78876123	     47.94414514	    -11.85633923	      0.83678319	     21.53172995	     24.48645839	     -7.56060607	    -23.47473055	     10.71088686	      1.44120527	     -9.54795435	     -4.19575794	    -10.92739966	    107.83769005	     90.00000001	      0.00000000	      0.00000000	      0.76010736	     -8.37977101	    -17.37230390	     52.71971762	     90.00000001	      0.00000000	      0.00000000
      2.57000000	     -1.27704560	     -8.47533037	     -4.15205761	     -1.21328044	      0.82739865	      0.33585514	      8.12607012	      8.19380876	    -25.11075627	     20.96961405	     -2.31700001	      0.36598881	     19.87329891	     29.14442833	     -7.55884634	     24.99019308	    -22.27299029	    -30.57307415	     46.57057006	    -11.96871244	      0.81280978	     21.45859807	     27.59834233	     -7.55884634	    -23.28710025	     10.72040934	      1.34183796	     -9.57491791	     -4.16997004	    -10.86098795	    107.82151710	     90.00000001	      0.00000000	      0.00000000	      0.88566972	     -8.39038040	    -17.31003851	     52.49329459	     90.00000001	      0.00000000	      0.00000000
      2.58000000	     -1.50825298	     -8.51574444	     -4.22843848	     -1.21168454	      0.82694824	      0.33499592	      8.24098701	      8.24541295	    -24.91336659	     20.90303175	     -2.39746500	      0.36482673	     20.00004092	     29.09559150	     -7.55771002	     25.68506968	    -22.19582891	    -30.77684126	     45.29259846	    -11.57734612	      0.79050497	     21.34870738	     28.86113416	     -7.55771002	    -23.19336981	     10.68055838	      1.25914681	     -9.70739090	     -4.16298532	    -10.84312409	    107.90782621	     90.00000001	      0.00000000	      0.00000000	      0.92015723	     -8.52943796	    -17.31186626	     52.42640130	     90.00000001	      0.00000000	      0.00000000
      2.59000000	     -1.73177744	     -8.65028477	     -4.38331287	     -1.20993257	      0.82653885	      0.33397674	      8.35438077	      8.29388669	    -24.79887943	     20.96110895	     -2.31724800	      0.36584037	     20.15476469	     29.00571388	     -7.55629151	     26.28497555	    -22.20468974	    -31.15258321	     44.08138204	    -11.38676795	      0.76936526	     21.10786232	     30.52764574	     -7.55629151	    -23.08295275	     10.76236296	      1.23408106	     -9.76964110	     -4.14950286	    -10.84700850	    107.88433385	     90.00000001	      0.00000000	      0.00000000	      0.95548018	     -8.51124329	    -17.27038597	     52.27025187	     90.00000001	      0.00000000	      0.00000000
      2.60000000	     -1.90516942	     -8.75266156	     -4.50592486	     -1.20827265	      0.82621678	      0.33293001	      8.42670522	      8.40441938	    -24.57197748	     20.96684243	     -2.43546748	      0.36594043	     20.22944378	     28.91295817	     -7.55560091	     26.82113250	    -22.10320214	    -31.04474650	     43.07446213	    -10.98311024	      0.75179119	     20.96704274	     30.97704501	     -7.55560091	    -23.04962465	     10.78143725	      1.25053373	     -9.84943361	     -4.22034938	    -10.86124818	    107.89661553	     90.00000001	      0.00000000	      0.00000000	      1.01154723	     -8.54736114	    -17.25134347	     52.25960994	     90.00000001	      0.00000000	      0.00000000
